<svg viewBox="0 0 40 48" fill="none" xmlns="http://www.w3.org/2000/svg">
    <path
        d="M26.1813 41.2967H13.8701C12.887 41.2967 11.6358 41.1849 10.8091 40.3359C10.0047 39.5092 10.027 38.4814 10.0494 37.7887C10.0494 36.5464 9.41343 35.4039 8.45037 34.6191C3.72721 30.7702 0.709839 24.9132 0.709839 19.3108C0.709839 13.4344 3.34636 7.93797 7.92676 4.25131C12.5072 0.564645 18.5175 -0.82064 24.3938 0.475271C29.9796 1.70416 34.8058 5.43551 37.3083 10.4628C41.8574 19.6238 38.0275 29.493 31.3734 34.8292C30.5562 35.4846 30.0243 36.4507 30.0243 37.4983C30.0467 38.1462 30.069 39.3304 29.1529 40.2689C28.4603 40.9392 27.4772 41.2967 26.1813 41.2967ZM13.3758 37.9033C13.3836 37.9111 13.3875 37.9228 13.3987 37.923C13.5088 37.9254 13.6585 37.9452 13.8478 37.9452H26.1813C26.2763 37.9452 26.3592 37.9411 26.43 37.9347C26.5607 37.923 26.6505 37.8083 26.6505 37.677V34.8618C26.6505 34.2808 26.9633 33.7222 27.4548 33.4318C34.0685 29.4323 38.4478 20.2939 34.2696 11.9151C32.214 7.78156 28.2369 4.72052 23.6341 3.71506C18.7633 2.64258 13.7807 3.78209 9.98235 6.84314C6.18397 9.90419 4.01666 14.4399 4.01666 19.3108C4.01666 25.5222 8.3066 30.8846 12.5518 33.4541C13.0657 33.7669 13.3562 34.3032 13.3562 34.8841V37.8803C13.3562 37.8914 13.3679 37.8954 13.3758 37.9033Z"
        fill="white" />
    <path
        d="M27.8128 48C27.6564 48 27.5 47.9777 27.3436 47.933C22.5174 46.5477 17.4455 46.5477 12.6192 47.933C11.7254 48.1788 10.8094 47.6649 10.5412 46.7711C10.2731 45.8774 10.8094 44.9613 11.7031 44.6932C17.1103 43.1515 22.8526 43.1515 28.2597 44.6932C29.1534 44.939 29.6673 45.8774 29.4215 46.7711C29.2204 47.5308 28.5501 48 27.8128 48Z"
        fill="white" />
</svg>
    