<svg width="211" height="48" viewBox="0 0 211 48" fill="none" xmlns="http://www.w3.org/2000/svg">
    <path
        d="M0 29.3047V0.618855C0 0.278102 0.276292 0 0.617045 0H33.7971C34.1379 0.0018419 34.416 0.278104 34.416 0.620698V5.17941C34.416 5.52201 34.1379 5.79831 33.7971 5.79831H6.24037C5.98987 5.79831 5.78543 6.00276 5.78543 6.25326V28.4519L0 29.3065V29.3047Z"
        fill="#3C3C50" />
    <path
        d="M45.6941 16.4482V44.7822C45.6941 45.123 45.4178 45.4011 45.077 45.4011H11.897C11.5562 45.3993 11.2781 45.123 11.2781 44.7804V40.2217C11.2781 39.8791 11.5562 39.6028 11.897 39.6028H39.4537C39.706 39.6028 39.9086 39.3984 39.9086 39.1479V17.1242L45.6941 16.4482Z"
        fill="#3C3C50" />
    <path
        d="M45.6941 17.2771H17.5829C17.3306 17.2771 17.128 17.4815 17.128 17.732V22.0715C17.1261 22.4141 16.8517 22.6904 16.5072 22.6904H11.897C11.5562 22.6904 11.2781 22.4123 11.2781 22.0715V11.7937C11.2781 11.453 11.5544 11.1748 11.897 11.1748H45.0752C45.4159 11.1748 45.6959 11.4511 45.6959 11.7937V17.2771H45.6941Z"
        fill="#4F46E5" />
    <path
        d="M34.3221 23.3093V33.6055C34.3221 33.9481 34.0439 34.2244 33.7013 34.2244H0.618889C0.278136 34.2244 0 33.9463 0 33.6055V28.3746H28.0688C28.1959 28.3746 28.3082 28.323 28.3911 28.2419C28.474 28.1591 28.5256 28.0449 28.5256 27.9196V23.3093C28.5256 22.9686 28.8037 22.6904 29.1463 22.6904H33.705C34.0458 22.6923 34.3239 22.9686 34.3239 23.3093H34.3221Z"
        fill="#4F46E5" />
    <path
        d="M72.3794 6.27538C77.0763 6.27538 81.0309 7.82072 84.2468 10.9114C87.461 14.0022 89.0689 17.8646 89.0653 22.4988C89.0653 27.1349 87.4591 30.9956 84.2468 34.0863C81.0309 37.177 77.0763 38.7224 72.3794 38.7224H62.8789V6.27722H72.3794V6.27538ZM72.3794 33.0677C75.4388 33.0677 77.9807 32.062 80.0031 30.0525C82.0255 28.0448 83.0404 25.5269 83.0404 22.4988C83.0404 19.4707 82.0273 16.9529 80.0031 14.9452C77.977 12.9357 75.437 11.93 72.3794 11.93H68.9038V33.0677H72.3794ZM96.5047 18.675C98.7205 16.3911 101.782 15.1257 104.963 15.1736C108.146 15.122 111.205 16.3911 113.421 18.6714C115.707 20.8872 116.972 23.9466 116.922 27.1294C116.976 30.3122 115.707 33.3716 113.421 35.5874C111.205 37.8714 108.144 39.1386 104.963 39.0889C101.78 39.1423 98.7205 37.8714 96.5047 35.5874C94.2189 33.3716 92.9535 30.3104 93.0069 27.1294C92.9535 23.9466 94.2226 20.8872 96.5047 18.6714V18.675ZM109.227 22.8009C108.133 21.6497 106.597 21.0161 105.009 21.0621C103.408 21.0216 101.863 21.6497 100.745 22.8009C99.6046 23.9521 98.9858 25.5159 99.0281 27.1331C98.9821 28.7503 99.6046 30.3178 100.745 31.4653C101.863 32.6128 103.408 33.2445 105.009 33.204C106.597 33.2501 108.133 32.6183 109.227 31.4653C110.341 30.3012 110.943 28.7392 110.897 27.1294C110.943 25.5196 110.341 23.9577 109.227 22.7973V22.8009ZM121.094 38.7205V26.5308C121.094 22.8525 122.004 20.0878 123.829 18.233C125.655 16.38 128.047 15.4517 131.013 15.4517H131.293V21.3384H131.063C128.436 21.3384 127.125 23.068 127.121 26.529V38.7187H121.096L121.094 38.7205ZM146.494 39.0926C143.311 39.146 140.252 37.8769 138.036 35.5911C135.752 33.3753 134.485 30.3159 134.538 27.1331C134.485 23.9503 135.754 20.8909 138.036 18.675C140.252 16.3892 143.313 15.1239 146.494 15.1773C149.669 15.122 152.727 16.3892 154.93 18.675C157.201 20.8964 158.461 23.9577 158.407 27.1331V38.7205H152.383V36.2652C152.044 37.0388 151.301 37.7019 150.158 38.2563C149.017 38.8126 147.763 39.0981 146.496 39.0926H146.494ZM142.276 31.4689C143.394 32.6164 144.939 33.2464 146.544 33.2077C148.131 33.2537 149.668 32.6219 150.762 31.4689C151.876 30.3048 152.475 28.7429 152.429 27.1368C152.475 25.527 151.872 23.965 150.758 22.8046C149.664 21.6534 148.131 21.0235 146.544 21.0658C144.943 21.0272 143.398 21.6553 142.28 22.8046C141.14 23.954 140.521 25.5196 140.565 27.1368C140.519 28.754 141.14 30.3232 142.28 31.4689H142.276ZM169.299 38.7242H163.272V6.27906H169.299V38.7242ZM186.215 21.4361H182.043V27.7869C182.043 29.6399 182.369 30.9698 183.015 31.7747C183.664 32.5796 184.73 32.9811 186.213 32.9811V38.8679C183.093 38.8679 180.612 37.958 178.773 36.1326C176.935 34.3073 176.014 31.5279 176.014 27.7888V21.4379H172.586V15.5512H176.016V6.32691H182.041V15.5512H186.213V21.4379V21.4342L186.215 21.4361ZM199.891 47.9945C197.655 48.0442 195.47 47.3241 193.7 45.9574C191.906 44.5299 190.562 42.6143 189.83 40.4409H196.55C197.332 41.4963 198.572 42.117 199.885 42.1114C202.637 42.1114 204.011 40.8755 204.011 38.4037V38.2656C202.707 38.8181 201.304 39.1 199.885 39.1C196.795 39.1 194.323 38.1495 192.47 36.2505C190.617 34.3515 189.689 31.5131 189.689 27.7464V15.5567H195.715V27.7464C195.715 29.6289 196.047 31.014 196.712 31.8944C197.377 32.7748 198.434 33.2151 199.887 33.2151C201.34 33.2151 202.399 32.7748 203.063 31.8944C203.726 31.014 204.059 29.6289 204.059 27.7464V15.5567H210.084V37.573C210.084 40.5716 209.128 43.0564 207.211 45.0346C205.295 47.0128 202.854 48 199.887 48L199.891 47.9964V47.9945Z"
        fill="#3C3C50" />
</svg>
    