<svg viewBox="0 0 48 48" fill="none" xmlns="http://www.w3.org/2000/svg">
    <path
        d="M28.3905 24.1539C28.3905 26.5821 26.4283 28.5443 24.0001 28.5443C21.5719 28.5443 19.6097 26.5821 19.6097 24.1539C19.6097 21.7257 21.5719 19.7635 24.0001 19.7635C26.4283 19.7635 28.3905 21.7257 28.3905 24.1539Z"
        stroke="#2787F3" stroke-width="2.5" stroke-linecap="round" stroke-linejoin="round" />
    <path
        d="M24 34.2964C28.3291 34.2964 32.3638 31.7456 35.1722 27.3306C36.2759 25.6014 36.2759 22.6949 35.1722 20.9658C32.3638 16.5508 28.3291 14 24 14C19.6709 14 15.6362 16.5508 12.8278 20.9658C11.7241 22.6949 11.7241 25.6014 12.8278 27.3306C15.6362 31.7456 19.6709 34.2964 24 34.2964Z"
        stroke="#3C3C50" stroke-width="2.5" stroke-linecap="round" stroke-linejoin="round" />
</svg>
    