<svg width="48" height="48" viewBox="0 0 48 48" fill="none" xmlns="http://www.w3.org/2000/svg">
    <circle cx="24" cy="24.001" r="24" fill="white" />
    <path
        d="M35.964 31.597C35.964 32.029 35.868 32.473 35.664 32.905C35.46 33.337 35.196 33.745 34.848 34.129C34.26 34.777 33.612 35.245 32.88 35.545C32.16 35.845 31.38 36.001 30.54 36.001C29.316 36.001 28.008 35.713 26.628 35.125C25.248 34.537 23.868 33.745 22.5 32.749C21.12 31.741 19.812 30.625 18.564 29.389C17.328 28.141 16.212 26.833 15.216 25.465C14.232 24.097 13.44 22.729 12.864 21.373C12.288 20.005 12 18.697 12 17.449C12 16.633 12.144 15.853 12.432 15.133C12.72 14.401 13.176 13.729 13.812 13.129C14.58 12.373 15.42 12.001 16.308 12.001C16.644 12.001 16.98 12.073 17.28 12.217C17.592 12.361 17.868 12.577 18.084 12.889L20.868 16.813C21.084 17.113 21.24 17.389 21.348 17.653C21.456 17.905 21.516 18.157 21.516 18.385C21.516 18.673 21.432 18.961 21.264 19.237C21.108 19.513 20.88 19.801 20.592 20.089L19.68 21.037C19.548 21.169 19.488 21.325 19.488 21.517C19.488 21.613 19.5 21.697 19.524 21.793C19.56 21.889 19.596 21.961 19.62 22.033C19.836 22.429 20.208 22.945 20.736 23.569C21.276 24.193 21.852 24.829 22.476 25.465C23.124 26.101 23.748 26.689 24.384 27.229C25.008 27.757 25.524 28.117 25.932 28.333C25.992 28.357 26.064 28.393 26.148 28.429C26.244 28.465 26.34 28.477 26.448 28.477C26.652 28.477 26.808 28.405 26.94 28.273L27.852 27.373C28.152 27.073 28.44 26.845 28.716 26.701C28.992 26.533 29.268 26.449 29.568 26.449C29.796 26.449 30.036 26.497 30.3 26.605C30.564 26.713 30.84 26.869 31.14 27.073L35.112 29.893C35.424 30.109 35.64 30.361 35.772 30.661C35.892 30.961 35.964 31.261 35.964 31.597Z"
        stroke="#3C3C50" stroke-width="2.5" stroke-miterlimit="10" />
    <path
        d="M31.8 20.4009C31.8 19.6809 31.236 18.5769 30.396 17.6769C29.628 16.8489 28.608 16.2009 27.6 16.2009"
        stroke="#2787F3" stroke-width="2.5" stroke-linecap="round" stroke-linejoin="round" />
    <path d="M36 20.401C36 15.757 32.244 12.001 27.6 12.001" stroke="#2787F3" stroke-width="2.5"
        stroke-linecap="round" stroke-linejoin="round" />
</svg>
    