<svg viewBox="0 0 82 65" fill="none" xmlns="http://www.w3.org/2000/svg">
    <g clip-path="url(#clip0_342_1645)">
        <mask id="mask0_342_1645" style="mask-type:luminance" maskUnits="userSpaceOnUse" x="0" y="0"
            width="82" height="65">
            <path d="M81.2891 0.983398H0V64.9834H81.2891V0.983398Z" fill="white" />
        </mask>
        <g mask="url(#mask0_342_1645)">
            <path
                d="M14.711 32.6531L36.5562 54.4995L32.4805 58.5752C32.4016 58.6543 32.3079 58.717 32.2048 58.7598C32.1016 58.8026 31.991 58.8246 31.8793 58.8246C31.7677 58.8246 31.6571 58.8026 31.5539 58.7598C31.4508 58.717 31.3571 58.6543 31.2782 58.5752L9.43324 36.7297L5.40458 32.6919C5.24556 32.5327 5.15625 32.3168 5.15625 32.0918C5.15625 31.8668 5.24556 31.6509 5.40458 31.4917L9.47237 27.4151L31.4086 5.47888C31.4875 5.39983 31.5812 5.3371 31.6843 5.29431C31.7875 5.25152 31.8981 5.22949 32.0098 5.22949C32.1215 5.22949 32.232 5.25152 32.3352 5.29431C32.4384 5.3371 32.5321 5.39983 32.6109 5.47888L36.046 8.91395C36.1251 8.99284 36.1878 9.08654 36.2306 9.1897C36.2734 9.29286 36.2954 9.40345 36.2954 9.51513C36.2954 9.62681 36.2734 9.73739 36.2306 9.84055C36.1878 9.94371 36.1251 10.0374 36.046 10.1163L14.711 31.4507C14.6319 31.5296 14.5692 31.6233 14.5264 31.7265C14.4836 31.8297 14.4616 31.9402 14.4616 32.0519C14.4616 32.1636 14.4836 32.2742 14.5264 32.3773C14.5692 32.4805 14.6319 32.5742 14.711 32.6531Z"
                fill="#F5F5FF" />
            <path
                d="M72.8233 31.6703C72.9023 31.7492 72.9651 31.8429 73.0079 31.946C73.0507 32.0492 73.0727 32.1598 73.0727 32.2715C73.0727 32.3832 73.0507 32.4937 73.0079 32.5969C72.9651 32.7001 72.9023 32.7938 72.8233 32.8726L68.7892 36.9095L46.8727 58.8248C46.7938 58.9039 46.7001 58.9666 46.5969 59.0094C46.4937 59.0522 46.3832 59.0742 46.2715 59.0742C46.1598 59.0742 46.0492 59.0522 45.946 59.0094C45.8429 58.9666 45.7492 58.9039 45.6703 58.8248L42.1952 55.3497C42.1161 55.2708 42.0534 55.1771 42.0106 55.0739C41.9678 54.9708 41.9458 54.8602 41.9458 54.7485C41.9458 54.6368 41.9678 54.5262 42.0106 54.4231C42.0534 54.3199 42.1161 54.2262 42.1952 54.1473L63.5114 32.8329C63.5905 32.754 63.6532 32.6603 63.696 32.5572C63.7388 32.454 63.7608 32.3434 63.7608 32.2317C63.7608 32.1201 63.7388 32.0095 63.696 31.9063C63.6532 31.8032 63.5905 31.7094 63.5114 31.6306L45.9412 14.0627L50.5786 9.4353L68.7473 27.5949L72.8233 31.6703Z"
                fill="#F5F5FF" />
            <path
                d="M58.4039 31.4415C58.4828 31.5204 58.5454 31.6141 58.5881 31.7171C58.6308 31.8202 58.6528 31.9307 58.6528 32.0423C58.6528 32.1538 58.6308 32.2643 58.5881 32.3674C58.5454 32.4705 58.4828 32.5641 58.4039 32.643L54.407 36.6498L32.4687 58.5769C32.3095 58.7357 32.0939 58.8248 31.869 58.8248C31.6442 58.8248 31.4286 58.7357 31.2694 58.5769L27.2717 54.5792L49.2094 32.653C49.2885 32.5741 49.3512 32.4804 49.394 32.3772C49.4368 32.2741 49.4588 32.1635 49.4588 32.0518C49.4588 31.9401 49.4368 31.8295 49.394 31.7264C49.3512 31.6232 49.2885 31.5295 49.2094 31.4506L47.2636 29.5049C47.104 29.3457 46.8878 29.2563 46.6624 29.2563C46.4371 29.2563 46.2209 29.3457 46.0613 29.5049L35.9769 39.5777L31.7911 43.7635C31.7122 43.8426 31.6185 43.9053 31.5153 43.9481C31.4122 43.9909 31.3016 44.0129 31.1899 44.0129C31.0782 44.0129 30.9676 43.9909 30.8645 43.9481C30.7613 43.9053 30.6676 43.8426 30.5887 43.7635L19.6581 32.8328C19.579 32.754 19.5163 32.6603 19.4735 32.5571C19.4307 32.4539 19.4087 32.3434 19.4087 32.2317C19.4087 32.12 19.4307 32.0094 19.4735 31.9062C19.5163 31.8031 19.579 31.7094 19.6581 31.6305L23.8439 27.4447L45.5999 5.67744C45.7588 5.5187 45.9741 5.42935 46.1987 5.42896C46.4233 5.42856 46.6389 5.51714 46.7983 5.67531L50.5771 9.43645L28.8219 31.2207C28.7429 31.2996 28.6801 31.3933 28.6373 31.4965C28.5945 31.5996 28.5725 31.7102 28.5725 31.8219C28.5725 31.9336 28.5945 32.0442 28.6373 32.1473C28.6801 32.2505 28.7429 32.3442 28.8219 32.4231L30.7789 34.3789C30.8578 34.4579 30.9515 34.5206 31.0547 34.5634C31.1578 34.6062 31.2684 34.6282 31.3801 34.6282C31.4918 34.6282 31.6024 34.6062 31.7055 34.5634C31.8087 34.5206 31.9024 34.4579 31.9813 34.3789L42.0535 24.2966L42.0435 24.2866L46.0412 20.2889C46.1201 20.2099 46.2138 20.1473 46.3168 20.1046C46.4199 20.0619 46.5304 20.0399 46.642 20.0399C46.7535 20.0399 46.864 20.0619 46.9671 20.1046C47.0702 20.1473 47.1638 20.2099 47.2427 20.2889L51.2483 24.2866L51.2583 24.2966L58.4039 31.4415Z"
                fill="#F5F5FF" />
        </g>
    </g>
    <defs>
        <clipPath id="clip0_342_1645">
            <rect width="81.2891" height="64" fill="white" transform="translate(0 0.983398)" />
        </clipPath>
    </defs>
</svg>
    