<svg
    xmlns="http://www.w3.org/2000/svg"
    width="60"
    height="48"
    viewBox="0 0 62 48"
    fill="none"
>
    <path
        d="M8.59778 24.4468L28.2552 43.9219L24.5877 47.5551C24.5167 47.6256 24.4324 47.6815 24.3395 47.7197C24.2467 47.7578 24.1472 47.7775 24.0467 47.7775C23.9462 47.7775 23.8467 47.7578 23.7539 47.7197C23.661 47.6815 23.5767 47.6256 23.5057 47.5551L3.84864 28.0809L0.223456 24.4814C0.0803684 24.3395 0 24.1471 0 23.9465C0 23.7458 0.0803684 23.5534 0.223456 23.4115L3.88385 19.7774L23.6231 0.222318C23.6941 0.151845 23.7784 0.0959312 23.8712 0.0577828C23.9641 0.0196344 24.0636 0 24.1641 0C24.2646 0 24.3641 0.0196344 24.4569 0.0577828C24.5497 0.0959312 24.634 0.151845 24.705 0.222318L27.7961 3.28452C27.8672 3.35484 27.9237 3.43837 27.9622 3.53033C28.0007 3.6223 28.0205 3.72088 28.0205 3.82044C28.0205 3.92 28.0007 4.01858 27.9622 4.11054C27.9237 4.2025 27.8672 4.28603 27.7961 4.35635L8.59778 23.375C8.52665 23.4453 8.47021 23.5288 8.4317 23.6208C8.39319 23.7128 8.37337 23.8113 8.37337 23.9109C8.37337 24.0105 8.39319 24.109 8.4317 24.201C8.47021 24.293 8.52665 24.3765 8.59778 24.4468Z"
        fill="#3C3C50"
    />
    <path
        d="M60.89 23.5707C60.9611 23.641 61.0176 23.7245 61.0561 23.8165C61.0946 23.9084 61.1144 24.007 61.1144 24.1066C61.1144 24.2061 61.0946 24.3047 61.0561 24.3967C61.0176 24.4887 60.9611 24.5722 60.89 24.6425L57.2599 28.2412L37.5384 47.7776C37.4674 47.8481 37.3831 47.904 37.2903 47.9421C37.1974 47.9803 37.0979 47.9999 36.9974 47.9999C36.8969 47.9999 36.7974 47.9803 36.7046 47.9421C36.6118 47.904 36.5274 47.8481 36.4565 47.7776L33.3294 44.6797C33.2583 44.6094 33.2018 44.5259 33.1633 44.4339C33.1248 44.3419 33.105 44.2433 33.105 44.1438C33.105 44.0442 33.1248 43.9456 33.1633 43.8537C33.2018 43.7617 33.2583 43.6782 33.3294 43.6079L52.5108 24.6071C52.5819 24.5368 52.6383 24.4532 52.6768 24.3613C52.7154 24.2693 52.7352 24.1707 52.7352 24.0712C52.7352 23.9716 52.7154 23.873 52.6768 23.7811C52.6383 23.6891 52.5819 23.6056 52.5108 23.5352L36.5438 7.72889L40.6518 3.54077L57.2214 19.9377L60.89 23.5707Z"
        fill="#3C3C50"
    />
    <path
        d="M47.9149 23.3669C47.9859 23.4372 48.0422 23.5207 48.0807 23.6126C48.1191 23.7045 48.1389 23.803 48.1389 23.9025C48.1389 24.0019 48.1191 24.1004 48.0807 24.1923C48.0422 24.2842 47.9859 24.3677 47.9149 24.438L44.3184 28.0099L24.5772 47.5568C24.434 47.6983 24.2399 47.7778 24.0376 47.7778C23.8353 47.7778 23.6413 47.6983 23.498 47.5568L19.9007 43.993L39.6413 24.4469C39.7124 24.3766 39.7689 24.293 39.8074 24.2011C39.8459 24.1091 39.8657 24.0105 39.8657 23.911C39.8657 23.8114 39.8459 23.7128 39.8074 23.6209C39.7689 23.5289 39.7124 23.4454 39.6413 23.375L37.8904 21.6405C37.7468 21.4986 37.5522 21.4189 37.3494 21.4189C37.1466 21.4189 36.9521 21.4986 36.8084 21.6405L27.734 30.62L23.9675 34.3514C23.8965 34.4219 23.8122 34.4778 23.7193 34.5159C23.6265 34.5541 23.527 34.5737 23.4265 34.5737C23.326 34.5737 23.2265 34.5541 23.1337 34.5159C23.0408 34.4778 22.9565 34.4219 22.8855 34.3514L13.0496 24.6072C12.9785 24.5369 12.922 24.4534 12.8835 24.3614C12.845 24.2695 12.8252 24.1709 12.8252 24.0713C12.8252 23.9718 12.845 23.8732 12.8835 23.7812C12.922 23.6892 12.9785 23.6057 13.0496 23.5354L16.8162 19.804L36.3933 0.399489C36.5363 0.25798 36.73 0.178334 36.9321 0.17798C37.1342 0.177625 37.3282 0.256589 37.4717 0.397596L40.872 3.75047L21.2957 23.1701C21.2245 23.2404 21.1681 23.3239 21.1296 23.4159C21.0911 23.5079 21.0712 23.6065 21.0712 23.706C21.0712 23.8056 21.0911 23.9042 21.1296 23.9961C21.1681 24.0881 21.2245 24.1716 21.2957 24.2419L23.0567 25.9854C23.1276 26.0559 23.212 26.1118 23.3048 26.15C23.3976 26.1881 23.4971 26.2077 23.5976 26.2077C23.6981 26.2077 23.7976 26.1881 23.8905 26.15C23.9833 26.1118 24.0676 26.0559 24.1386 25.9854L33.2021 16.9976L33.1931 16.9886L36.7904 13.4249C36.8614 13.3545 36.9457 13.2987 37.0384 13.2606C37.1312 13.2225 37.2306 13.2029 37.331 13.2029C37.4314 13.2029 37.5308 13.2225 37.6236 13.2606C37.7163 13.2987 37.8006 13.3545 37.8715 13.4249L41.476 16.9886L41.485 16.9976L47.9149 23.3669Z"
        fill="#2787F3"
    />
</svg>