<svg width="179" height="64" viewBox="0 0 179 64" fill="none" xmlns="http://www.w3.org/2000/svg">
    <g clip-path="url(#clip0_217_229)">
        <mask id="mask0_217_229" style="mask-type:luminance" maskUnits="userSpaceOnUse" x="0" y="-8"
            width="179" height="65">
            <path d="M178.641 -7.59814H0.320618V56.4019H178.641V-7.59814Z" fill="white" />
        </mask>
        <g mask="url(#mask0_217_229)">
            <path
                d="M19.9847 24.7466L37.5777 42.3405L34.2953 45.6228C34.2318 45.6864 34.1563 45.7369 34.0733 45.7714C33.9902 45.8059 33.9011 45.8236 33.8112 45.8236C33.7212 45.8236 33.6322 45.8059 33.5491 45.7714C33.466 45.7369 33.3906 45.6864 33.327 45.6228L15.7344 28.0296L12.4899 24.7778C12.3618 24.6496 12.2899 24.4758 12.2899 24.2945C12.2899 24.1133 12.3618 23.9395 12.4899 23.8112L15.7659 20.5282L33.4321 2.86198C33.4956 2.79831 33.5711 2.7478 33.6541 2.71333C33.7372 2.67887 33.8263 2.66113 33.9162 2.66113C34.0062 2.66113 34.0952 2.67887 34.1783 2.71333C34.2614 2.7478 34.3368 2.79831 34.4004 2.86198L37.1668 5.62839C37.2305 5.69192 37.281 5.76738 37.3154 5.85046C37.3499 5.93354 37.3676 6.0226 37.3676 6.11254C37.3676 6.20248 37.3499 6.29154 37.3154 6.37462C37.281 6.4577 37.2305 6.53316 37.1668 6.59669L19.9847 23.7783C19.9211 23.8418 19.8706 23.9172 19.8361 24.0003C19.8016 24.0834 19.7839 24.1725 19.7839 24.2624C19.7839 24.3523 19.8016 24.4414 19.8361 24.5245C19.8706 24.6076 19.9211 24.683 19.9847 24.7466Z"
                fill="#6F6F8B" />
            <path
                d="M66.7851 23.955C66.8488 24.0185 66.8993 24.094 66.9337 24.1771C66.9682 24.2602 66.9859 24.3492 66.9859 24.4392C66.9859 24.5291 66.9682 24.6182 66.9337 24.7012C66.8993 24.7843 66.8488 24.8598 66.7851 24.9233L63.5362 28.1744L45.8859 45.8237C45.8224 45.8874 45.7469 45.9379 45.6639 45.9724C45.5808 46.0068 45.4917 46.0246 45.4018 46.0246C45.3118 46.0246 45.2228 46.0068 45.1397 45.9724C45.0566 45.9379 44.9812 45.8874 44.9176 45.8237L42.119 43.0251C42.0553 42.9615 42.0048 42.8861 41.9703 42.803C41.9359 42.7199 41.9181 42.6308 41.9181 42.5409C41.9181 42.451 41.9359 42.3619 41.9703 42.2788C42.0048 42.1957 42.0553 42.1203 42.119 42.0567L59.2859 24.8913C59.3495 24.8278 59.4 24.7523 59.4345 24.6692C59.469 24.5862 59.4867 24.4971 59.4867 24.4072C59.4867 24.3172 59.469 24.2282 59.4345 24.1451C59.4 24.062 59.3495 23.9865 59.2859 23.923L44.9958 9.64344L48.6724 5.85986L63.5018 20.6729L66.7851 23.955Z"
                fill="#6F6F8B" />
            <path
                d="M55.1725 23.7708C55.2361 23.8344 55.2865 23.9098 55.3209 23.9928C55.3553 24.0758 55.373 24.1648 55.373 24.2546C55.373 24.3445 55.3553 24.4335 55.3209 24.5165C55.2865 24.5995 55.2361 24.6749 55.1725 24.7384L51.9537 27.9653L34.2858 45.6242C34.1576 45.752 33.9839 45.8238 33.8029 45.8238C33.6218 45.8238 33.4482 45.752 33.32 45.6242L30.1004 42.4046L47.7678 24.7465C47.8315 24.6829 47.882 24.6075 47.9165 24.5244C47.9509 24.4413 47.9687 24.3523 47.9687 24.2623C47.9687 24.1724 47.9509 24.0833 47.9165 24.0002C47.882 23.9172 47.8315 23.8417 47.7678 23.7782L46.2008 22.2111C46.0723 22.083 45.8982 22.011 45.7167 22.011C45.5352 22.011 45.361 22.083 45.2325 22.2111L37.1111 30.3233L33.7401 33.6943C33.6766 33.7579 33.6011 33.8084 33.518 33.8429C33.435 33.8774 33.3459 33.8951 33.256 33.8951C33.166 33.8951 33.077 33.8774 32.9939 33.8429C32.9108 33.8084 32.8353 33.7579 32.7718 33.6943L23.9689 24.8913C23.9052 24.8278 23.8547 24.7523 23.8202 24.6693C23.7858 24.5862 23.768 24.4971 23.768 24.4072C23.768 24.3172 23.7858 24.2282 23.8202 24.1451C23.8547 24.062 23.9052 23.9866 23.9689 23.923L27.3399 20.552L44.861 3.02189C44.9889 2.89405 45.1623 2.8221 45.3432 2.82178C45.5241 2.82146 45.6977 2.89279 45.8261 3.02018L48.8693 6.04919L31.3489 23.593C31.2852 23.6565 31.2347 23.732 31.2003 23.8151C31.1658 23.8982 31.1481 23.9872 31.1481 24.0772C31.1481 24.1671 31.1658 24.2562 31.2003 24.3392C31.2347 24.4223 31.2852 24.4978 31.3489 24.5613L32.925 26.1364C32.9885 26.2001 33.064 26.2506 33.147 26.285C33.2301 26.3195 33.3192 26.3372 33.4091 26.3372C33.4991 26.3372 33.5881 26.3195 33.6712 26.285C33.7543 26.2506 33.8297 26.2001 33.8933 26.1364L42.0049 18.0167L41.9969 18.0086L45.2164 14.7891C45.2799 14.7255 45.3553 14.6751 45.4383 14.6407C45.5213 14.6063 45.6103 14.5886 45.7002 14.5886C45.79 14.5886 45.879 14.6063 45.962 14.6407C46.045 14.6751 46.1204 14.7255 46.184 14.7891L49.4099 18.0086L49.4179 18.0167L55.1725 23.7708Z"
                fill="#6F6F8B" />
            <path
                d="M85.8977 5.02222C89.8047 5.02222 93.0949 6.30743 95.7681 8.87785C98.4412 11.4483 99.7778 14.6613 99.7778 18.5169C99.7778 22.3726 98.4412 25.5856 95.7681 28.156C93.0949 30.7264 89.8047 32.0117 85.8977 32.0119H77.9946V5.02222H85.8977ZM85.8977 27.3079C88.4423 27.3079 90.5565 26.4725 92.2402 24.8016C93.924 23.1308 94.7658 21.0359 94.7658 18.5169C94.7658 15.998 93.924 13.9031 92.2402 12.2322C90.5565 10.5614 88.4423 9.72597 85.8977 9.72597H83.0059V27.3079H85.8977ZM105.967 15.336C106.878 14.3959 107.973 13.6525 109.183 13.1519C110.393 12.6512 111.693 12.4038 113.003 12.425C114.312 12.4038 115.612 12.6511 116.823 13.1518C118.033 13.6525 119.128 14.3958 120.039 15.336C120.98 16.2478 121.723 17.3426 122.224 18.5528C122.724 19.7631 122.972 21.063 122.95 22.3726C122.972 23.6821 122.724 24.9821 122.224 26.1923C121.723 27.4025 120.98 28.4973 120.039 29.4091C119.128 30.3493 118.033 31.0927 116.823 31.5933C115.612 32.094 114.312 32.3414 113.003 32.3202C111.693 32.3413 110.393 32.0939 109.183 31.5933C107.973 31.0926 106.878 30.3493 105.967 29.4091C105.026 28.4973 104.283 27.4025 103.782 26.1923C103.282 24.9821 103.034 23.6821 103.056 22.3726C103.034 21.063 103.282 19.7631 103.782 18.5528C104.283 17.3426 105.026 16.2478 105.967 15.336ZM116.55 18.7676C116.1 18.2937 115.554 17.9201 114.95 17.671C114.345 17.4219 113.695 17.3029 113.041 17.3217C112.383 17.3052 111.727 17.4252 111.117 17.674C110.506 17.9228 109.954 18.2951 109.494 18.7676C109.025 19.2408 108.657 19.8042 108.412 20.4239C108.166 21.0435 108.049 21.7064 108.068 22.3726C108.049 23.0387 108.166 23.7016 108.412 24.3213C108.657 24.9409 109.025 25.5044 109.494 25.9776C109.954 26.45 110.506 26.8223 111.117 27.0711C111.727 27.32 112.383 27.4399 113.041 27.4234C113.695 27.4423 114.345 27.3233 114.95 27.0741C115.554 26.825 116.1 26.4514 116.55 25.9776C117.009 25.4987 117.368 24.9334 117.606 24.3145C117.845 23.6956 117.957 23.0355 117.938 22.3726C117.957 21.7097 117.845 21.0495 117.606 20.4306C117.368 19.8117 117.009 19.2464 116.55 18.7676ZM126.421 32.0119V21.8713C126.421 18.8125 127.179 16.5119 128.696 14.9696C130.212 13.4272 132.204 12.6561 134.672 12.6563H134.903V17.5535H134.71C132.526 17.5535 131.433 18.9929 131.433 21.8718V32.0119H126.421ZM147.55 32.3204C146.241 32.3416 144.941 32.0942 143.731 31.5936C142.52 31.0929 141.426 30.3495 140.514 29.4094C139.574 28.4976 138.83 27.4028 138.329 26.1925C137.828 24.9822 137.581 23.6822 137.602 22.3726C137.581 21.063 137.828 19.7631 138.329 18.5528C138.83 17.3426 139.573 16.2478 140.513 15.336C141.425 14.3958 142.52 13.6525 143.73 13.1518C144.94 12.6511 146.24 12.4038 147.55 12.425C148.857 12.4026 150.154 12.6496 151.361 13.1504C152.568 13.6512 153.66 14.3952 154.567 15.336C155.502 16.2506 156.241 17.3464 156.738 18.5562C157.235 19.7661 157.48 21.0647 157.459 22.3726V32.0116H152.446V29.9683C152.164 30.6109 151.547 31.1635 150.596 31.6262C149.647 32.0883 148.605 32.3258 147.55 32.3202L147.55 32.3204ZM144.041 25.9778C144.501 26.4503 145.053 26.8227 145.664 27.0715C146.274 27.3203 146.929 27.4402 147.589 27.4237C148.242 27.4425 148.892 27.3235 149.497 27.0744C150.101 26.8253 150.647 26.4516 151.097 25.9778C151.556 25.499 151.915 24.9336 152.153 24.3147C152.392 23.6958 152.505 23.0357 152.485 22.3728C152.505 21.7099 152.392 21.0498 152.153 20.4309C151.915 19.812 151.556 19.2466 151.097 18.7678C150.647 18.2939 150.101 17.9203 149.497 17.6711C148.892 17.4219 148.242 17.3029 147.589 17.3217C146.93 17.3052 146.274 17.4252 145.664 17.674C145.053 17.9228 144.501 18.2951 144.041 18.7676C143.572 19.2408 143.204 19.8042 142.959 20.4239C142.713 21.0435 142.596 21.7064 142.615 22.3726C142.596 23.0387 142.713 23.7017 142.958 24.3214C143.204 24.941 143.572 25.5045 144.041 25.9778ZM166.519 32.0114H161.507V5.02222H166.52L166.519 32.0114Z"
                fill="#6F6F8B" />
            <path
                d="M80.666 43.0959C80.9821 43.1113 81.2965 43.0408 81.5757 42.8916C81.6784 42.8378 81.7643 42.7567 81.8239 42.6573C81.8835 42.5578 81.9145 42.4438 81.9135 42.3279C81.918 42.1889 81.8842 42.0513 81.8158 41.9302C81.7164 41.7936 81.5804 41.6878 81.4235 41.6251C81.1354 41.5 80.8364 41.4019 80.5302 41.3319C80.1887 41.2467 79.8559 41.13 79.536 40.9834C79.2743 40.8677 79.0464 40.6873 78.8738 40.4592C78.7088 40.2154 78.6267 39.9251 78.6395 39.6311C78.6351 39.3959 78.6893 39.1634 78.7973 38.9544C78.9052 38.7454 79.0635 38.5666 79.2578 38.4341C79.7548 38.1064 80.3439 37.947 80.9384 37.9793C81.3674 37.9709 81.7948 38.0354 82.2022 38.1701C82.5311 38.2812 82.8414 38.4409 83.1229 38.6439L82.6099 39.4119C82.3799 39.2614 82.1323 39.1396 81.8727 39.0492C81.5824 38.951 81.2775 38.9031 80.9711 38.9075C80.6814 38.8846 80.3913 38.9452 80.1349 39.0819C80.0563 39.1309 79.9916 39.1994 79.9473 39.2807C79.9029 39.362 79.8803 39.4534 79.8816 39.5461C79.8771 39.6774 79.9229 39.8054 80.0096 39.9042C80.1364 40.0242 80.2879 40.115 80.4535 40.1704C80.7462 40.2803 81.0445 40.3749 81.347 40.4538C81.6836 40.5417 82.0108 40.6621 82.3241 40.8134C82.5849 40.936 82.8089 41.1247 82.9742 41.3608C83.139 41.6257 83.2197 41.9343 83.2057 42.246C83.2208 42.6183 83.092 42.982 82.8462 43.262C82.5905 43.5353 82.2673 43.7363 81.9091 43.8448C81.5076 43.9726 81.0883 44.036 80.667 44.0326C80.1953 44.0434 79.7259 43.9648 79.2834 43.8011C78.9258 43.6652 78.5941 43.469 78.3029 43.2209L78.95 42.4803C79.1837 42.6668 79.4446 42.8164 79.7236 42.9241C80.0241 43.0404 80.3438 43.0987 80.666 43.0959ZM91.292 37.9805C92.1345 37.9805 92.7774 38.2547 93.2205 38.803C93.6636 39.3513 93.8854 40.0831 93.8859 40.9985C93.8981 41.5459 93.7951 42.0897 93.5835 42.5946C93.4 43.027 93.093 43.3956 92.7009 43.6543C92.2773 43.9169 91.7855 44.0486 91.2873 44.0329C90.4483 44.0329 89.8055 43.7614 89.3588 43.2185C88.9121 42.6755 88.6888 41.9391 88.689 41.0093C88.6783 40.4682 88.7813 39.9309 88.9914 39.4322C89.1756 38.9976 89.4833 38.6266 89.8764 38.3652C90.2998 38.0992 90.7929 37.9652 91.2927 37.9805H91.292ZM91.292 38.9283C91.0973 38.9179 90.9033 38.959 90.7296 39.0475C90.5558 39.136 90.4085 39.2687 90.3024 39.4322C90.0809 39.7682 89.9702 40.2939 89.9702 41.0093C89.9702 41.7247 90.08 42.2503 90.2997 42.5863C90.413 42.7428 90.5618 42.8701 90.7339 42.9579C90.906 43.0456 91.0965 43.0912 91.2897 43.0909C91.4829 43.0907 91.6733 43.0446 91.8451 42.9564C92.017 42.8682 92.1655 42.7404 92.2783 42.5836C92.4966 42.2467 92.6057 41.7183 92.6057 40.9985C92.6057 40.2903 92.4967 39.7682 92.2788 39.4322C92.174 39.2683 92.0274 39.1352 91.854 39.0467C91.6807 38.9582 91.487 38.9174 91.2927 38.9285L91.292 38.9283ZM101.93 35.8233V42.3169C101.919 42.4237 101.936 42.5314 101.978 42.63C102.021 42.7286 102.087 42.8148 102.172 42.8806C102.36 42.9987 102.58 43.0567 102.801 43.0468C102.96 43.0473 103.119 43.03 103.273 42.995C103.424 42.9608 103.571 42.9143 103.713 42.856L104.024 43.7058C103.823 43.8042 103.612 43.8809 103.394 43.9347C103.115 44.0035 102.829 44.0364 102.542 44.0324C102.295 44.0472 102.049 44.0113 101.817 43.9269C101.585 43.8426 101.373 43.7117 101.194 43.5421C101.028 43.3633 100.9 43.153 100.817 42.9237C100.734 42.6944 100.698 42.4509 100.711 42.2074V36.7222H98.9724V35.8233H101.93ZM111.037 38.1332V42.1534C111.012 42.414 111.085 42.6746 111.242 42.8843C111.324 42.9618 111.421 43.0212 111.528 43.0587C111.634 43.0963 111.747 43.1111 111.86 43.1022C112.13 43.0997 112.393 43.0183 112.617 42.8679C112.85 42.7225 113.047 42.527 113.195 42.2959V38.1332H114.416V43.8858H113.366L113.289 43.1503C113.079 43.4343 112.799 43.6601 112.478 43.8067C112.164 43.9543 111.822 44.0314 111.476 44.0326C111.247 44.051 111.017 44.0194 110.802 43.9399C110.586 43.8604 110.391 43.735 110.229 43.5724C109.939 43.216 109.793 42.7643 109.82 42.3059V38.1332H111.037ZM125.036 43.5805C124.801 43.7256 124.546 43.8357 124.279 43.9073C123.979 43.9916 123.669 44.0338 123.358 44.0326C122.69 44.0326 122.183 43.8592 121.835 43.5123C121.66 43.3314 121.523 43.1165 121.434 42.8809C121.344 42.6453 121.304 42.394 121.315 42.1422V39.0211H120.036V38.1332H121.316V36.8475L122.537 36.701V38.1337H124.476L124.34 39.0216H122.537V42.1315C122.527 42.256 122.542 42.3813 122.582 42.4997C122.622 42.6182 122.685 42.7273 122.768 42.8206C122.983 42.9911 123.255 43.0721 123.528 43.0465C123.724 43.0485 123.92 43.0228 124.109 42.9703C124.278 42.9226 124.442 42.8571 124.597 42.7749L125.036 43.5805ZM132.939 35.3167C133.045 35.312 133.152 35.3289 133.251 35.3663C133.351 35.4038 133.442 35.461 133.519 35.5346C133.591 35.6053 133.648 35.6903 133.686 35.784C133.724 35.8777 133.742 35.9783 133.739 36.0793C133.741 36.1811 133.723 36.2824 133.685 36.3769C133.648 36.4715 133.591 36.5574 133.519 36.6294C133.443 36.7044 133.352 36.763 133.252 36.8014C133.152 36.8398 133.046 36.8573 132.939 36.8527C132.833 36.8564 132.728 36.8386 132.63 36.8002C132.531 36.7618 132.442 36.7037 132.367 36.6294C132.294 36.5578 132.237 36.4721 132.198 36.3775C132.16 36.2829 132.141 36.1814 132.143 36.0793C132.141 35.978 132.159 35.8772 132.198 35.7834C132.236 35.6896 132.294 35.6049 132.367 35.5346C132.443 35.4617 132.533 35.4049 132.631 35.3675C132.729 35.33 132.834 35.3128 132.939 35.3167H132.939ZM133.789 38.1332V42.9923H135.352V43.8858H130.847V42.9923H132.569V39.0265H130.901V38.1332H133.789ZM143.364 37.9807C144.207 37.9807 144.85 38.2549 145.293 38.8032C145.736 39.3515 145.957 40.0833 145.957 40.9985C145.97 41.5459 145.867 42.0897 145.655 42.5946C145.472 43.027 145.165 43.3956 144.772 43.6543C144.349 43.9167 143.857 44.0483 143.359 44.0324C142.52 44.0324 141.877 43.7609 141.43 43.218C140.984 42.6751 140.76 41.9387 140.76 41.009C140.75 40.468 140.853 39.9309 141.063 39.4322C141.247 38.9976 141.555 38.6266 141.948 38.3652C142.372 38.0992 142.865 37.9652 143.365 37.9805L143.364 37.9807ZM143.364 38.9285C143.169 38.9178 142.975 38.9588 142.801 39.0472C142.627 39.1357 142.479 39.2686 142.373 39.4325C142.151 39.7684 142.041 40.2941 142.041 41.0095C142.041 41.7249 142.15 42.2506 142.37 42.5865C142.483 42.743 142.632 42.8704 142.804 42.9581C142.976 43.0458 143.167 43.0914 143.36 43.0912C143.553 43.0909 143.744 43.0448 143.915 42.9566C144.087 42.8684 144.236 42.7406 144.349 42.5839C144.568 42.2468 144.678 41.7183 144.678 40.9985C144.678 40.2903 144.569 39.7682 144.351 39.4322C144.246 39.2682 144.1 39.1351 143.926 39.0466C143.753 38.958 143.559 38.9173 143.364 38.9285ZM151.474 43.8858V38.1332H152.525L152.617 38.8794C152.847 38.5964 153.138 38.3684 153.467 38.2121C153.781 38.0605 154.126 37.9814 154.475 37.9805C154.697 37.9634 154.92 37.9951 155.128 38.0732C155.337 38.1513 155.525 38.2739 155.682 38.4326C155.967 38.7878 156.109 39.2365 156.082 39.6912V43.8858H154.861V40.295C154.882 39.9336 154.831 39.5714 154.711 39.23C154.611 39.0183 154.387 38.9124 154.038 38.9124C153.762 38.912 153.494 39.003 153.275 39.1713C153.053 39.3357 152.857 39.5335 152.695 39.7576V43.8858H151.474ZM163.981 43.0959C164.297 43.1113 164.612 43.0408 164.891 42.8916C164.993 42.8378 165.079 42.7567 165.139 42.6573C165.199 42.5578 165.23 42.4438 165.229 42.3279C165.233 42.1889 165.199 42.0513 165.131 41.9302C165.031 41.7936 164.895 41.6878 164.739 41.6251C164.45 41.5 164.151 41.4019 163.845 41.3319C163.504 41.2467 163.171 41.13 162.851 40.9834C162.59 40.868 162.362 40.688 162.189 40.4604C162.024 40.2166 161.942 39.9263 161.955 39.6323C161.95 39.3971 162.005 39.1646 162.113 38.9556C162.22 38.7467 162.379 38.5679 162.573 38.4353C163.07 38.1076 163.659 37.9482 164.254 37.9805C164.683 37.9721 165.11 38.0366 165.518 38.1713C165.846 38.2824 166.157 38.4422 166.438 38.6452L165.925 39.4132C165.695 39.2622 165.447 39.1399 165.188 39.0492C164.897 38.951 164.592 38.9031 164.286 38.9075C163.996 38.8846 163.706 38.9452 163.45 39.0819C163.371 39.1309 163.306 39.1994 163.262 39.2807C163.218 39.362 163.195 39.4534 163.196 39.5461C163.192 39.6774 163.238 39.8054 163.324 39.9042C163.451 40.0245 163.603 40.1156 163.769 40.1712C164.061 40.281 164.359 40.3756 164.662 40.4545C164.998 40.5424 165.326 40.6629 165.639 40.8141C165.899 40.937 166.123 41.1257 166.287 41.3615C166.452 41.6264 166.533 41.9351 166.519 42.2468C166.534 42.619 166.405 42.9828 166.159 43.2627C165.904 43.536 165.58 43.7371 165.222 43.8455C164.821 43.9733 164.401 44.0367 163.98 44.0334C163.508 44.0441 163.039 43.9655 162.597 43.8018C162.239 43.6659 161.907 43.4697 161.616 43.2217L162.266 42.4803C162.5 42.6669 162.76 42.8166 163.039 42.9244C163.34 43.0404 163.659 43.0986 163.981 43.0959H163.981Z"
                fill="#6F6F8B" />
        </g>
    </g>
    <defs>
        <clipPath id="clip0_217_229">
            <rect width="178.321" height="64" fill="white" transform="translate(0.320618)" />
        </clipPath>
    </defs>
</svg>
    