<svg viewBox="0 0 173 48" fill="none" xmlns="http://www.w3.org/2000/svg">
    <path
        d="M8.59778 24.4468L28.2552 43.9219L24.5877 47.5551C24.5167 47.6256 24.4324 47.6815 24.3395 47.7197C24.2467 47.7578 24.1472 47.7775 24.0467 47.7775C23.9462 47.7775 23.8467 47.7578 23.7539 47.7197C23.661 47.6815 23.5767 47.6256 23.5057 47.5551L3.84864 28.0809L0.223456 24.4814C0.0803684 24.3395 0 24.1471 0 23.9465C0 23.7458 0.0803684 23.5534 0.223456 23.4115L3.88385 19.7774L23.6231 0.222318C23.6941 0.151845 23.7784 0.0959312 23.8712 0.0577828C23.9641 0.0196344 24.0636 0 24.1641 0C24.2646 0 24.3641 0.0196344 24.4569 0.0577828C24.5497 0.0959312 24.634 0.151845 24.705 0.222318L27.7961 3.28452C27.8672 3.35484 27.9237 3.43837 27.9622 3.53033C28.0007 3.6223 28.0205 3.72088 28.0205 3.82044C28.0205 3.92 28.0007 4.01858 27.9622 4.11054C27.9237 4.2025 27.8672 4.28603 27.7961 4.35635L8.59778 23.375C8.52665 23.4453 8.47021 23.5288 8.4317 23.6208C8.39319 23.7128 8.37337 23.8113 8.37337 23.9109C8.37337 24.0105 8.39319 24.109 8.4317 24.201C8.47021 24.293 8.52665 24.3765 8.59778 24.4468Z"
        fill="#3C3C50" />
    <path
        d="M60.89 23.5707C60.9611 23.641 61.0176 23.7245 61.0561 23.8165C61.0946 23.9084 61.1144 24.007 61.1144 24.1066C61.1144 24.2061 61.0946 24.3047 61.0561 24.3967C61.0176 24.4887 60.9611 24.5722 60.89 24.6425L57.2599 28.2412L37.5384 47.7776C37.4674 47.8481 37.3831 47.904 37.2903 47.9421C37.1974 47.9803 37.0979 47.9999 36.9974 47.9999C36.8969 47.9999 36.7974 47.9803 36.7046 47.9421C36.6118 47.904 36.5274 47.8481 36.4565 47.7776L33.3294 44.6797C33.2583 44.6094 33.2018 44.5259 33.1633 44.4339C33.1248 44.3419 33.105 44.2433 33.105 44.1438C33.105 44.0442 33.1248 43.9456 33.1633 43.8537C33.2018 43.7617 33.2583 43.6782 33.3294 43.6079L52.5108 24.6071C52.5819 24.5368 52.6383 24.4532 52.6768 24.3613C52.7154 24.2693 52.7352 24.1707 52.7352 24.0712C52.7352 23.9716 52.7154 23.873 52.6768 23.7811C52.6383 23.6891 52.5819 23.6056 52.5108 23.5352L36.5438 7.72889L40.6518 3.54077L57.2214 19.9377L60.89 23.5707Z"
        fill="#3C3C50" />
    <path
        d="M47.9149 23.3669C47.9859 23.4372 48.0422 23.5207 48.0807 23.6126C48.1191 23.7045 48.1389 23.803 48.1389 23.9025C48.1389 24.0019 48.1191 24.1004 48.0807 24.1923C48.0422 24.2842 47.9859 24.3677 47.9149 24.438L44.3184 28.0099L24.5772 47.5568C24.434 47.6983 24.2399 47.7778 24.0376 47.7778C23.8353 47.7778 23.6413 47.6983 23.498 47.5568L19.9007 43.993L39.6413 24.4469C39.7124 24.3766 39.7689 24.293 39.8074 24.2011C39.8459 24.1091 39.8657 24.0105 39.8657 23.911C39.8657 23.8114 39.8459 23.7128 39.8074 23.6209C39.7689 23.5289 39.7124 23.4454 39.6413 23.375L37.8904 21.6405C37.7468 21.4986 37.5522 21.4189 37.3494 21.4189C37.1466 21.4189 36.9521 21.4986 36.8084 21.6405L27.734 30.62L23.9675 34.3514C23.8965 34.4219 23.8122 34.4778 23.7193 34.5159C23.6265 34.5541 23.527 34.5737 23.4265 34.5737C23.326 34.5737 23.2265 34.5541 23.1337 34.5159C23.0408 34.4778 22.9565 34.4219 22.8855 34.3514L13.0496 24.6072C12.9785 24.5369 12.922 24.4534 12.8835 24.3614C12.845 24.2695 12.8252 24.1709 12.8252 24.0713C12.8252 23.9718 12.845 23.8732 12.8835 23.7812C12.922 23.6892 12.9785 23.6057 13.0496 23.5354L16.8162 19.804L36.3933 0.399489C36.5363 0.25798 36.73 0.178334 36.9321 0.17798C37.1342 0.177625 37.3282 0.256589 37.4717 0.397596L40.872 3.75047L21.2957 23.1701C21.2245 23.2404 21.1681 23.3239 21.1296 23.4159C21.0911 23.5079 21.0712 23.6065 21.0712 23.706C21.0712 23.8056 21.0911 23.9042 21.1296 23.9961C21.1681 24.0881 21.2245 24.1716 21.2957 24.2419L23.0567 25.9854C23.1276 26.0559 23.212 26.1118 23.3048 26.15C23.3976 26.1881 23.4971 26.2077 23.5976 26.2077C23.6981 26.2077 23.7976 26.1881 23.8905 26.15C23.9833 26.1118 24.0676 26.0559 24.1386 25.9854L33.2021 16.9976L33.1931 16.9886L36.7904 13.4249C36.8614 13.3545 36.9457 13.2987 37.0384 13.2606C37.1312 13.2225 37.2306 13.2029 37.331 13.2029C37.4314 13.2029 37.5308 13.2225 37.6236 13.2606C37.7163 13.2987 37.8006 13.3545 37.8715 13.4249L41.476 16.9886L41.485 16.9976L47.9149 23.3669Z"
        fill="#2787F3" />
    <path
        d="M82.2454 2.61328C86.611 2.61328 90.2872 4.03591 93.2741 6.88116C96.261 9.72642 97.7544 13.283 97.7544 17.5509C97.7544 21.8188 96.261 25.3753 93.2741 28.2206C90.2872 31.0658 86.611 32.4885 82.2454 32.4887H73.415V2.61328H82.2454ZM82.2454 27.2818C85.0888 27.2818 87.451 26.357 89.3323 24.5075C91.2136 22.6581 92.1542 20.3392 92.1542 17.5509C92.1542 14.7626 91.2136 12.4437 89.3323 10.5942C87.451 8.74471 85.0888 7.81997 82.2454 7.81997H79.0144V27.2818H82.2454ZM104.669 14.0298C105.688 12.9892 106.911 12.1664 108.264 11.6122C109.616 11.058 111.068 10.7841 112.531 10.8075C113.995 10.7841 115.447 11.0579 116.799 11.6121C118.152 12.1663 119.375 12.9891 120.394 14.0298C121.444 15.0391 122.275 16.251 122.834 17.5906C123.394 18.9302 123.67 20.3692 123.646 21.8188C123.67 23.2683 123.394 24.7073 122.834 26.0469C122.275 27.3865 121.444 28.5984 120.394 29.6077C119.375 30.6484 118.152 31.4712 116.799 32.0254C115.447 32.5796 113.995 32.8534 112.531 32.83C111.068 32.8534 109.616 32.5795 108.264 32.0253C106.911 31.4711 105.688 30.6483 104.669 29.6077C103.619 28.5984 102.788 27.3865 102.229 26.0469C101.669 24.7073 101.393 23.2683 101.417 21.8188C101.393 20.3692 101.669 18.9302 102.229 17.5906C102.788 16.251 103.619 15.0391 104.669 14.0298ZM116.495 17.8283C115.992 17.3038 115.382 16.8902 114.707 16.6145C114.031 16.3387 113.305 16.207 112.574 16.2278C111.838 16.2096 111.106 16.3424 110.424 16.6178C109.742 16.8932 109.125 17.3053 108.611 17.8283C108.087 18.3521 107.675 18.9758 107.401 19.6617C107.127 20.3476 106.997 21.0814 107.017 21.8188C106.997 22.5561 107.127 23.2899 107.401 23.9758C107.675 24.6617 108.087 25.2854 108.611 25.8092C109.125 26.3322 109.742 26.7443 110.424 27.0197C111.106 27.2951 111.838 27.4279 112.574 27.4097C113.305 27.4305 114.031 27.2988 114.707 27.023C115.382 26.7473 115.992 26.3337 116.495 25.8092C117.008 25.2792 117.409 24.6534 117.675 23.9683C117.941 23.2832 118.067 22.5525 118.046 21.8188C118.067 21.085 117.941 20.3543 117.675 19.6692C117.409 18.9841 117.008 18.3583 116.495 17.8283ZM127.524 32.4887V21.2639C127.524 17.878 128.371 15.3315 130.066 13.6242C131.76 11.917 133.986 11.0634 136.743 11.0636H137.001V16.4844H136.786C134.345 16.4844 133.124 18.0778 133.124 21.2644V32.4887H127.524ZM151.133 32.8302C149.67 32.8537 148.217 32.5799 146.865 32.0257C145.513 31.4715 144.289 30.6486 143.271 29.608C142.22 28.5987 141.389 27.3868 140.83 26.0471C140.27 24.7075 139.994 23.2684 140.017 21.8188C139.994 20.3692 140.27 18.9302 140.829 17.5906C141.389 16.251 142.219 15.0391 143.27 14.0298C144.289 12.9891 145.512 12.1663 146.864 11.6121C148.216 11.0579 149.669 10.7841 151.132 10.8075C152.592 10.7828 154.042 11.0562 155.391 11.6105C156.74 12.1649 157.959 12.9884 158.973 14.0298C160.018 15.0422 160.843 16.2551 161.399 17.5944C161.954 18.9336 162.228 20.371 162.204 21.8188V32.4885H156.603V30.2266C156.288 30.9379 155.598 31.5497 154.536 32.0618C153.476 32.5733 152.311 32.8362 151.132 32.83L151.133 32.8302ZM147.212 25.8095C147.725 26.3325 148.343 26.7447 149.025 27.0201C149.707 27.2955 150.439 27.4282 151.175 27.4099C151.906 27.4308 152.632 27.299 153.308 27.0233C153.983 26.7475 154.593 26.334 155.096 25.8095C155.609 25.2794 156.01 24.6537 156.276 23.9686C156.542 23.2835 156.668 22.5528 156.647 21.819C156.668 21.0852 156.542 20.3545 156.276 19.6694C156.01 18.9844 155.609 18.3586 155.096 17.8286C154.593 17.304 153.983 16.8904 153.308 16.6146C152.632 16.3388 151.906 16.207 151.175 16.2278C150.439 16.2096 149.707 16.3424 149.025 16.6178C148.343 16.8932 147.726 17.3053 147.212 17.8283C146.688 18.3521 146.276 18.9758 146.002 19.6617C145.728 20.3476 145.598 21.0814 145.618 21.8188C145.598 22.5561 145.728 23.29 146.002 23.9759C146.276 24.6618 146.687 25.2856 147.212 25.8095ZM172.328 32.4882H166.727V2.61328H172.328L172.328 32.4882Z"
        fill="#3C3C50" />
    <path
        d="M76.3997 44.7578C76.7529 44.7749 77.1042 44.6968 77.4161 44.5317C77.5309 44.4722 77.6269 44.3824 77.6935 44.2723C77.7601 44.1622 77.7947 44.036 77.7936 43.9077C77.7986 43.7538 77.7608 43.6015 77.6844 43.4675C77.5733 43.3162 77.4214 43.1992 77.2461 43.1297C76.9242 42.9913 76.5901 42.8827 76.2479 42.8053C75.8664 42.7109 75.4945 42.5818 75.1371 42.4194C74.8447 42.2913 74.5901 42.0917 74.3971 41.8392C74.2128 41.5694 74.1211 41.248 74.1354 40.9225C74.1305 40.6622 74.1911 40.4048 74.3117 40.1735C74.4323 39.9422 74.6091 39.7443 74.8262 39.5976C75.3816 39.2349 76.0398 39.0584 76.704 39.0941C77.1834 39.0848 77.6609 39.1563 78.1162 39.3053C78.4836 39.4283 78.8304 39.6051 79.1449 39.8299L78.5717 40.68C78.3147 40.5133 78.0381 40.3785 77.748 40.2784C77.4237 40.1697 77.083 40.1167 76.7406 40.1216C76.417 40.0963 76.0928 40.1633 75.8063 40.3147C75.7184 40.3689 75.6462 40.4447 75.5966 40.5347C75.547 40.6247 75.5218 40.7259 75.5233 40.8284C75.5183 40.9738 75.5694 41.1155 75.6663 41.2248C75.808 41.3577 75.9772 41.4583 76.1622 41.5195C76.4893 41.6412 76.8226 41.7459 77.1606 41.8332C77.5367 41.9305 77.9024 42.0638 78.2524 42.2312C78.5437 42.367 78.7941 42.5759 78.9787 42.8372C79.1629 43.1304 79.2531 43.472 79.2374 43.8171C79.2542 44.2291 79.1104 44.6318 78.8357 44.9416C78.55 45.2442 78.1889 45.4667 77.7887 45.5868C77.34 45.7283 76.8716 45.7985 76.4008 45.7947C75.8738 45.8066 75.3492 45.7196 74.8549 45.5384C74.4553 45.388 74.0847 45.1708 73.7593 44.8962L74.4823 44.0764C74.7435 44.2828 75.035 44.4485 75.3467 44.5677C75.6824 44.6964 76.0397 44.7609 76.3997 44.7578ZM88.2726 39.0955C89.214 39.0955 89.9323 39.3989 90.4274 40.0059C90.9225 40.6128 91.1704 41.4229 91.1709 42.4362C91.1845 43.042 91.0694 43.644 90.833 44.2029C90.628 44.6815 90.285 45.0896 89.8469 45.3759C89.3735 45.6666 88.824 45.8124 88.2674 45.795C87.3299 45.795 86.6116 45.4945 86.1125 44.8935C85.6134 44.2925 85.3639 43.4774 85.3641 42.4481C85.3522 41.8492 85.4673 41.2545 85.702 40.7024C85.9079 40.2214 86.2517 39.8107 86.6909 39.5213C87.164 39.2268 87.7149 39.0786 88.2734 39.0955H88.2726ZM88.2726 40.1446C88.055 40.1331 87.8383 40.1786 87.6442 40.2766C87.4501 40.3745 87.2854 40.5214 87.1669 40.7024C86.9194 41.0743 86.7957 41.6562 86.7957 42.4481C86.7957 43.24 86.9184 43.8219 87.1639 44.1937C87.2905 44.3669 87.4567 44.5079 87.6491 44.605C87.8414 44.7021 88.0542 44.7526 88.2701 44.7523C88.4859 44.752 88.6986 44.701 88.8906 44.6034C89.0827 44.5057 89.2486 44.3643 89.3747 44.1908C89.6185 43.8178 89.7404 43.2329 89.7404 42.4362C89.7404 41.6522 89.6187 41.0743 89.3752 40.7024C89.2581 40.5209 89.0943 40.3736 88.9006 40.2757C88.707 40.1777 88.4905 40.1325 88.2734 40.1449L88.2726 40.1446ZM100.159 36.7076V43.8955C100.147 44.0137 100.166 44.1329 100.213 44.2421C100.26 44.3512 100.335 44.4467 100.43 44.5196C100.64 44.6503 100.885 44.7144 101.133 44.7034C101.31 44.7041 101.487 44.6848 101.66 44.6461C101.828 44.6083 101.992 44.5568 102.151 44.4922L102.498 45.4329C102.274 45.5418 102.038 45.6268 101.795 45.6863C101.484 45.7625 101.163 45.7988 100.843 45.7945C100.567 45.8108 100.292 45.7711 100.033 45.6777C99.7735 45.5844 99.5365 45.4394 99.3362 45.2518C99.1511 45.0538 99.008 44.821 98.9155 44.5672C98.8229 44.3134 98.7828 44.0438 98.7974 43.7744V37.7027H96.8543V36.7076H100.159ZM110.335 39.2645V43.7146C110.307 44.0031 110.388 44.2915 110.563 44.5236C110.655 44.6094 110.764 44.6751 110.883 44.7167C111.002 44.7582 111.128 44.7746 111.254 44.7648C111.556 44.762 111.85 44.6719 112.1 44.5055C112.36 44.3445 112.58 44.1281 112.745 43.8722V39.2645H114.11V45.6322H112.936L112.851 44.8181C112.616 45.1324 112.304 45.3824 111.944 45.5446C111.594 45.708 111.212 45.7934 110.825 45.7947C110.57 45.8151 110.312 45.78 110.072 45.692C109.831 45.6041 109.613 45.4653 109.431 45.2853C109.108 44.8907 108.945 44.3907 108.975 43.8833V39.2645H110.335ZM125.976 45.2942C125.713 45.4548 125.428 45.5767 125.13 45.656C124.795 45.7493 124.449 45.796 124.101 45.7947C123.355 45.7947 122.788 45.6028 122.4 45.2188C122.204 45.0185 122.052 44.7806 121.952 44.5199C121.852 44.2591 121.806 43.9808 121.819 43.7022V40.2473H120.389V39.2645H121.82V37.8414L123.184 37.6792V39.265H125.351L125.199 40.2479H123.184V43.6903C123.173 43.8281 123.19 43.9668 123.234 44.0979C123.279 44.229 123.35 44.3498 123.443 44.453C123.683 44.6419 123.987 44.7315 124.292 44.7032C124.511 44.7053 124.729 44.6769 124.94 44.6188C125.129 44.566 125.312 44.4935 125.486 44.4025L125.976 45.2942ZM134.807 36.1468C134.925 36.1417 135.044 36.1604 135.156 36.2018C135.267 36.2433 135.369 36.3066 135.455 36.388C135.535 36.4664 135.599 36.5604 135.641 36.6641C135.683 36.7679 135.704 36.8792 135.7 36.991C135.703 37.1037 135.683 37.2158 135.641 37.3204C135.598 37.4251 135.535 37.5202 135.455 37.5999C135.37 37.683 135.268 37.7478 135.157 37.7903C135.045 37.8328 134.926 37.8521 134.807 37.8471C134.689 37.8512 134.571 37.8315 134.461 37.789C134.351 37.7465 134.251 37.6821 134.167 37.5999C134.086 37.5207 134.022 37.4258 133.979 37.321C133.936 37.2163 133.915 37.104 133.918 36.991C133.915 36.8788 133.936 36.7673 133.979 36.6635C134.021 36.5597 134.086 36.4659 134.167 36.388C134.252 36.3074 134.353 36.2445 134.462 36.203C134.572 36.1616 134.69 36.1425 134.807 36.1468H134.807ZM135.756 39.2645V44.6431H137.503V45.6322H132.47V44.6431H134.393V40.2533H132.529V39.2645H135.756ZM146.455 39.0957C147.397 39.0957 148.115 39.3992 148.61 40.0062C149.105 40.6131 149.353 41.4231 149.353 42.4362C149.366 43.042 149.251 43.644 149.015 44.2029C148.81 44.6815 148.467 45.0896 148.029 45.3759C147.555 45.6664 147.006 45.812 146.449 45.7945C145.512 45.7945 144.794 45.494 144.294 44.893C143.795 44.292 143.546 43.4769 143.546 42.4478C143.534 41.849 143.649 41.2544 143.884 40.7024C144.09 40.2213 144.434 39.8106 144.873 39.5213C145.346 39.2268 145.897 39.0786 146.456 39.0955L146.455 39.0957ZM146.455 40.1449C146.237 40.133 146.02 40.1783 145.826 40.2763C145.631 40.3742 145.466 40.5213 145.347 40.7027C145.1 41.0746 144.976 41.6565 144.976 42.4483C144.976 43.2402 145.099 43.8221 145.344 44.194C145.471 44.3672 145.637 44.5082 145.83 44.6053C146.022 44.7024 146.235 44.7529 146.451 44.7526C146.667 44.7523 146.879 44.7013 147.071 44.6036C147.263 44.506 147.429 44.3646 147.555 44.191C147.801 43.8179 147.923 43.2329 147.923 42.4362C147.923 41.6522 147.801 41.0743 147.558 40.7024C147.441 40.5209 147.277 40.3735 147.083 40.2755C146.889 40.1775 146.673 40.1324 146.455 40.1449ZM155.517 45.6322V39.2645H156.691L156.794 40.0905C157.051 39.7773 157.375 39.5249 157.744 39.3518C158.095 39.1841 158.48 39.0965 158.87 39.0955C159.118 39.0766 159.367 39.1116 159.6 39.198C159.833 39.2845 160.044 39.4203 160.218 39.596C160.537 39.9891 160.696 40.4857 160.665 40.989V45.6322H159.301V41.6574C159.325 41.2574 159.268 40.8565 159.133 40.4785C159.022 40.2442 158.771 40.127 158.382 40.127C158.073 40.1265 157.773 40.2273 157.529 40.4136C157.281 40.5956 157.062 40.8145 156.881 41.0626V45.6322H155.517ZM169.491 44.7578C169.845 44.7749 170.196 44.6968 170.508 44.5317C170.623 44.4722 170.719 44.3824 170.785 44.2723C170.852 44.1622 170.886 44.036 170.885 43.9077C170.89 43.7538 170.853 43.6015 170.776 43.4675C170.665 43.3162 170.513 43.1992 170.338 43.1297C170.016 42.9913 169.682 42.8827 169.34 42.8053C168.958 42.7109 168.586 42.5818 168.229 42.4194C167.937 42.2917 167.682 42.0925 167.489 41.8405C167.305 41.5707 167.213 41.2493 167.227 40.9239C167.222 40.6636 167.283 40.4062 167.404 40.1749C167.524 39.9436 167.701 39.7456 167.918 39.5989C168.474 39.2362 169.132 39.0597 169.796 39.0955C170.275 39.0862 170.753 39.1576 171.208 39.3067C171.576 39.4297 171.922 39.6065 172.237 39.8312L171.664 40.6813C171.407 40.5142 171.13 40.3789 170.839 40.2784C170.515 40.1697 170.174 40.1167 169.832 40.1216C169.508 40.0963 169.184 40.1633 168.898 40.3147C168.81 40.3689 168.738 40.4447 168.688 40.5347C168.638 40.6247 168.613 40.7259 168.615 40.8284C168.61 40.9738 168.661 41.1155 168.758 41.2248C168.899 41.358 169.069 41.4589 169.254 41.5204C169.581 41.642 169.914 41.7467 170.252 41.834C170.628 41.9314 170.994 42.0647 171.344 42.232C171.634 42.3681 171.884 42.5769 172.068 42.838C172.252 43.1312 172.343 43.4729 172.327 43.8179C172.344 44.2299 172.2 44.6326 171.925 44.9425C171.64 45.245 171.278 45.4675 170.878 45.5876C170.43 45.7291 169.961 45.7993 169.49 45.7955C168.963 45.8074 168.439 45.7204 167.944 45.5392C167.545 45.3888 167.174 45.1716 166.849 44.897L167.575 44.0764C167.836 44.2829 168.128 44.4487 168.439 44.568C168.775 44.6964 169.132 44.7608 169.491 44.7578H169.491Z"
        fill="#2787F3" />
</svg>
    