<svg viewBox="0 0 48 48" fill="none" xmlns="http://www.w3.org/2000/svg">
    <path d="M19.6471 23.9883L22.5381 26.8912L28.3319 21.0853" stroke="#2787F3" stroke-width="2.5"
        stroke-linecap="round" stroke-linejoin="round" />
    <path
        d="M22.4901 12.5323C23.3178 11.8245 24.6733 11.8245 25.513 12.5323L27.4082 14.1636C27.7681 14.4755 28.4399 14.7274 28.9197 14.7274H30.9589C32.2304 14.7274 33.274 15.771 33.274 17.0426V19.0818C33.274 19.5496 33.5259 20.2334 33.8378 20.5932L35.4692 22.4885C36.1769 23.3162 36.1769 24.6717 35.4692 25.5113L33.8378 27.4066C33.5259 27.7665 33.274 28.4382 33.274 28.9181V30.9573C33.274 32.2288 32.2304 33.2724 30.9589 33.2724H28.9197C28.4518 33.2724 27.7681 33.5243 27.4082 33.8362L25.513 35.4676C24.6853 36.1753 23.3298 36.1753 22.4901 35.4676L20.5948 33.8362C20.2349 33.5243 19.5631 33.2724 19.0833 33.2724H17.0081C15.7366 33.2724 14.693 32.2288 14.693 30.9573V28.9061C14.693 28.4382 14.4411 27.7665 14.1412 27.4066L12.5218 25.4994C11.8261 24.6717 11.8261 23.3282 12.5218 22.5005L14.1412 20.5932C14.4411 20.2334 14.693 19.5616 14.693 19.0938V17.0306C14.693 15.759 15.7366 14.7154 17.0081 14.7154H19.0833C19.5512 14.7154 20.2349 14.4635 20.5948 14.1517L22.4901 12.5323Z"
        stroke="#3C3C50" stroke-width="2.5" stroke-linecap="round" stroke-linejoin="round" />
</svg>
    