<svg width="49" height="48" viewBox="0 0 49 48" fill="none" xmlns="http://www.w3.org/2000/svg">
    <circle cx="24.3289" cy="24" r="24" fill="white" />
    <path
        d="M36.2929 31.596C36.2929 32.028 36.1969 32.472 35.9929 32.904C35.7889 33.336 35.5249 33.744 35.1769 34.128C34.5889 34.776 33.9409 35.244 33.2089 35.544C32.4889 35.844 31.7089 36 30.8689 36C29.6449 36 28.3369 35.712 26.9569 35.124C25.5769 34.536 24.1969 33.744 22.8289 32.748C21.4489 31.74 20.1409 30.624 18.8929 29.388C17.6569 28.14 16.5409 26.832 15.5449 25.464C14.5609 24.096 13.7689 22.728 13.1929 21.372C12.6169 20.004 12.3289 18.696 12.3289 17.448C12.3289 16.632 12.4729 15.852 12.7609 15.132C13.0489 14.4 13.5049 13.728 14.1409 13.128C14.9089 12.372 15.7489 12 16.6369 12C16.9729 12 17.3089 12.072 17.6089 12.216C17.9209 12.36 18.1969 12.576 18.4129 12.888L21.1969 16.812C21.4129 17.112 21.5689 17.388 21.6769 17.652C21.7849 17.904 21.8449 18.156 21.8449 18.384C21.8449 18.672 21.7609 18.96 21.5929 19.236C21.4369 19.512 21.2089 19.8 20.9209 20.088L20.0089 21.036C19.8769 21.168 19.8169 21.324 19.8169 21.516C19.8169 21.612 19.8289 21.696 19.8529 21.792C19.8889 21.888 19.9249 21.96 19.9489 22.032C20.1649 22.428 20.5369 22.944 21.0649 23.568C21.6049 24.192 22.1809 24.828 22.8049 25.464C23.4529 26.1 24.0769 26.688 24.7129 27.228C25.3369 27.756 25.8529 28.116 26.2609 28.332C26.3209 28.356 26.3929 28.392 26.4769 28.428C26.5729 28.464 26.6689 28.476 26.7769 28.476C26.9809 28.476 27.1369 28.404 27.2689 28.272L28.1809 27.372C28.4809 27.072 28.7689 26.844 29.0449 26.7C29.3209 26.532 29.5969 26.448 29.8969 26.448C30.1249 26.448 30.3649 26.496 30.6289 26.604C30.8929 26.712 31.1689 26.868 31.4689 27.072L35.4409 29.892C35.7529 30.108 35.9689 30.36 36.1009 30.66C36.2209 30.96 36.2929 31.26 36.2929 31.596Z"
        stroke="#3C3C50" stroke-width="2.5" stroke-miterlimit="10" />
    <path
        d="M32.129 20.4C32.129 19.68 31.565 18.576 30.725 17.676C29.957 16.848 28.937 16.2 27.929 16.2"
        stroke="#2787F3" stroke-width="2.5" stroke-linecap="round" stroke-linejoin="round" />
    <path d="M36.329 20.4C36.329 15.756 32.573 12 27.929 12" stroke="#2787F3" stroke-width="2.5"
        stroke-linecap="round" stroke-linejoin="round" />
</svg>
    