<svg viewBox="0 0 48 48" fill="none" xmlns="http://www.w3.org/2000/svg">
    <path
        d="M30.6977 48H17.3023C5.17954 48 0 42.8205 0 30.6977V17.3023C0 5.17954 5.17954 0 17.3023 0H30.6977C42.8205 0 48 5.17954 48 17.3023V30.6977C48 42.8205 42.8205 48 30.6977 48ZM17.3023 3.34884C7.01023 3.34884 3.34884 7.01023 3.34884 17.3023V30.6977C3.34884 40.9898 7.01023 44.6512 17.3023 44.6512H30.6977C40.9898 44.6512 44.6512 40.9898 44.6512 30.6977V17.3023C44.6512 7.01023 40.9898 3.34884 30.6977 3.34884H17.3023Z"
        fill="white" />
    <path
        d="M31.9929 40.1862C31.0775 40.1862 30.3185 39.4272 30.3185 38.5118V29.8049C30.3185 28.8895 31.0775 28.1304 31.9929 28.1304C32.9082 28.1304 33.6673 28.8895 33.6673 29.8049V38.5118C33.6673 39.4272 32.9082 40.1862 31.9929 40.1862Z"
        fill="white" />
    <path
        d="M31.9929 15.5163C31.0775 15.5163 30.3185 14.7572 30.3185 13.8419V9.48838C30.3185 8.57303 31.0775 7.81396 31.9929 7.81396C32.9082 7.81396 33.6673 8.57303 33.6673 9.48838V13.8419C33.6673 14.7572 32.9082 15.5163 31.9929 15.5163Z"
        fill="white" />
    <path
        d="M31.9937 27.126C27.8635 27.126 24.5147 23.7772 24.5147 19.6469C24.5147 15.5167 27.8635 12.1678 31.9937 12.1678C36.124 12.1678 39.4728 15.5167 39.4728 19.6469C39.4728 23.7772 36.1016 27.126 31.9937 27.126ZM31.9937 15.5167C29.7165 15.5167 27.8635 17.3697 27.8635 19.6469C27.8635 21.9241 29.7165 23.7771 31.9937 23.7771C34.2709 23.7771 36.124 21.9241 36.124 19.6469C36.124 17.3697 34.2486 15.5167 31.9937 15.5167Z"
        fill="white" />
    <path
        d="M16.0073 40.1856C15.0919 40.1856 14.3328 39.4266 14.3328 38.5112V34.1577C14.3328 33.2424 15.0919 32.4833 16.0073 32.4833C16.9226 32.4833 17.6817 33.2424 17.6817 34.1577V38.5112C17.6817 39.4266 16.9449 40.1856 16.0073 40.1856Z"
        fill="white" />
    <path
        d="M16.0073 19.8698C15.0919 19.8698 14.3328 19.1107 14.3328 18.1954V9.48838C14.3328 8.57303 15.0919 7.81396 16.0073 7.81396C16.9226 7.81396 17.6817 8.57303 17.6817 9.48838V18.1954C17.6817 19.1107 16.9449 19.8698 16.0073 19.8698Z"
        fill="white" />
    <path
        d="M16.0081 35.8328C11.8779 35.8328 8.52906 32.484 8.52906 28.3537C8.52906 24.2235 11.8779 20.8747 16.0081 20.8747C20.1383 20.8747 23.4872 24.2235 23.4872 28.3537C23.4872 32.484 20.1383 35.8328 16.0081 35.8328ZM16.0081 24.2235C13.7309 24.2235 11.8779 26.0765 11.8779 28.3537C11.8779 30.6309 13.7309 32.484 16.0081 32.484C18.2853 32.484 20.1383 30.6309 20.1383 28.3537C20.1383 26.0765 18.3077 24.2235 16.0081 24.2235Z"
        fill="white" />
</svg>
    