<svg viewBox="0 0 48 48" fill="none" xmlns="http://www.w3.org/2000/svg">
    <path
        d="M24.269 27.4157C24.2244 27.4157 24.1574 27.4157 24.1127 27.4157C24.0458 27.4157 23.9565 27.4157 23.8895 27.4157C18.8215 27.2594 15.0262 23.3078 15.0262 18.4408C15.0262 13.4845 19.0671 9.4436 24.0234 9.4436C28.9797 9.4436 33.0206 13.4845 33.0206 18.4408C32.9983 23.3301 29.1806 27.2594 24.336 27.4157C24.2913 27.4157 24.2913 27.4157 24.269 27.4157ZM24.0011 12.7701C20.8755 12.7701 18.3527 15.3152 18.3527 18.4185C18.3527 21.3543 20.5537 23.7554 23.4155 24.0421C23.6543 24.066 23.8575 24.0425 24.0973 24.0529C24.1987 24.0573 24.3426 24.0648 24.4438 24.0569C27.3622 23.8267 29.6275 21.403 29.6495 18.4185C29.6495 15.3152 27.1267 12.7701 24.0011 12.7701Z"
        fill="white" />
    <path
        d="M24.0018 48C17.9962 48 12.2586 45.7675 7.8158 41.7043C7.41394 41.347 7.23533 40.8112 7.27998 40.2977C7.57021 37.641 9.2223 35.1629 11.9683 33.3322C18.6213 28.9117 29.4045 28.9117 36.0352 33.3322C38.7813 35.1852 40.4333 37.641 40.7236 40.2977C40.7906 40.8336 40.5896 41.347 40.1878 41.7043C35.745 45.7675 30.0073 48 24.0018 48ZM13.8214 36.1005C11.3461 37.774 12.2174 41.2107 14.8972 42.5321C17.7066 43.9173 20.8156 44.6512 24.0018 44.6512C27.1833 44.6512 30.2878 43.9195 33.094 42.5381C35.7822 41.2149 36.642 37.7786 34.1599 36.1005C28.6678 32.4392 19.3581 32.4392 13.8214 36.1005Z"
        fill="white" />
    <path
        d="M24 47.9998C10.761 47.9998 6.10352e-05 37.239 6.10352e-05 23.9999C6.10352e-05 10.7609 10.761 0 24 0C37.239 0 47.9999 10.7609 47.9999 23.9999C47.9999 37.239 37.239 47.9998 24 47.9998ZM24 3.34883C12.614 3.34883 3.34889 12.6139 3.34889 23.9999C3.34889 35.3859 12.614 44.651 24 44.651C35.386 44.651 44.6511 35.3859 44.6511 23.9999C44.6511 12.6139 35.386 3.34883 24 3.34883Z"
        fill="white" />
</svg>
    